<mxfile host="app.diagrams.net" modified="2021-10-20T16:15:55.315Z" agent="5.0 (Windows NT 10.0; Win64; x64) AppleWebKit/537.36 (KHTML, like Gecko) Chrome/94.0.4606.81 Safari/537.36 Edg/94.0.992.50" etag="Z4mKg3_jc5DMNz2X6vhL" version="15.4.3" type="github">
  <diagram id="JmuFzZtwAlmiX_NOEhPW" name="Page-1">
    <mxGraphModel dx="1483" dy="881" grid="1" gridSize="10" guides="1" tooltips="1" connect="1" arrows="1" fold="1" page="1" pageScale="1" pageWidth="827" pageHeight="1169" math="0" shadow="0">
      <root>
        <mxCell id="0" />
        <mxCell id="1" parent="0" />
        <mxCell id="uC8Jnr2yHaZiXLGZVVK4-1" value="" style="edgeStyle=orthogonalEdgeStyle;rounded=0;orthogonalLoop=1;jettySize=auto;html=1;" parent="1" target="QcxPbey-fvQrx8h6nicg-3" edge="1">
          <mxGeometry relative="1" as="geometry">
            <mxPoint x="60" y="210" as="sourcePoint" />
          </mxGeometry>
        </mxCell>
        <mxCell id="Ckuc4saJkIq0bEPmqGia-1" value="Избиратель" style="shape=umlActor;verticalLabelPosition=bottom;verticalAlign=top;html=1;outlineConnect=0;hachureGap=4;pointerEvents=0;" parent="1" vertex="1">
          <mxGeometry x="20" y="180" width="30" height="60" as="geometry" />
        </mxCell>
        <mxCell id="uC8Jnr2yHaZiXLGZVVK4-13" value="" style="edgeStyle=orthogonalEdgeStyle;rounded=0;orthogonalLoop=1;jettySize=auto;html=1;" parent="1" target="uC8Jnr2yHaZiXLGZVVK4-12" edge="1">
          <mxGeometry relative="1" as="geometry">
            <mxPoint x="1140" y="260" as="sourcePoint" />
            <Array as="points">
              <mxPoint x="970" y="260" />
            </Array>
          </mxGeometry>
        </mxCell>
        <mxCell id="Ckuc4saJkIq0bEPmqGia-4" value="Администратор" style="shape=umlActor;verticalLabelPosition=bottom;verticalAlign=top;html=1;outlineConnect=0;hachureGap=4;pointerEvents=0;" parent="1" vertex="1">
          <mxGeometry x="1160" y="200" width="30" height="60" as="geometry" />
        </mxCell>
        <mxCell id="Ckuc4saJkIq0bEPmqGia-5" value="Кандидат" style="shape=umlActor;verticalLabelPosition=bottom;verticalAlign=top;html=1;outlineConnect=0;hachureGap=4;pointerEvents=0;" parent="1" vertex="1">
          <mxGeometry x="470" y="690" width="30" height="60" as="geometry" />
        </mxCell>
        <mxCell id="QcxPbey-fvQrx8h6nicg-13" style="edgeStyle=none;rounded=0;orthogonalLoop=1;jettySize=auto;html=1;exitX=1;exitY=0.5;exitDx=0;exitDy=0;entryX=0;entryY=0.5;entryDx=0;entryDy=0;fontSize=10;endArrow=classic;endFill=1;" parent="1" source="QcxPbey-fvQrx8h6nicg-3" target="QcxPbey-fvQrx8h6nicg-21" edge="1">
          <mxGeometry relative="1" as="geometry">
            <mxPoint x="290" y="400" as="targetPoint" />
          </mxGeometry>
        </mxCell>
        <mxCell id="QcxPbey-fvQrx8h6nicg-3" value="Заходит на сайт" style="rounded=0;whiteSpace=wrap;html=1;" parent="1" vertex="1">
          <mxGeometry x="90" y="195" width="80" height="30" as="geometry" />
        </mxCell>
        <mxCell id="QcxPbey-fvQrx8h6nicg-25" value="" style="edgeStyle=none;rounded=0;orthogonalLoop=1;jettySize=auto;html=1;fontSize=11;endArrow=classic;endFill=1;entryX=0.636;entryY=0.024;entryDx=0;entryDy=0;entryPerimeter=0;" parent="1" source="QcxPbey-fvQrx8h6nicg-18" target="QcxPbey-fvQrx8h6nicg-29" edge="1">
          <mxGeometry relative="1" as="geometry">
            <mxPoint x="350" y="505" as="targetPoint" />
          </mxGeometry>
        </mxCell>
        <mxCell id="QcxPbey-fvQrx8h6nicg-18" value="&lt;font style=&quot;font-size: 11px&quot;&gt;Выбор &lt;br&gt;пункта &lt;br&gt;&lt;font style=&quot;font-size: 11px&quot;&gt;меню&lt;/font&gt;&lt;font style=&quot;font-size: 11px&quot;&gt; &lt;br&gt; &lt;/font&gt;&lt;/font&gt;" style="strokeWidth=1;html=1;shape=mxgraph.flowchart.decision;whiteSpace=wrap;fontSize=10;" parent="1" vertex="1">
          <mxGeometry x="335" y="368.13" width="120" height="63.75" as="geometry" />
        </mxCell>
        <mxCell id="QcxPbey-fvQrx8h6nicg-39" value="" style="edgeStyle=none;rounded=0;orthogonalLoop=1;jettySize=auto;html=1;fontSize=11;endArrow=classic;endFill=1;" parent="1" source="QcxPbey-fvQrx8h6nicg-21" target="QcxPbey-fvQrx8h6nicg-38" edge="1">
          <mxGeometry relative="1" as="geometry" />
        </mxCell>
        <mxCell id="QcxPbey-fvQrx8h6nicg-21" value="Авторизация" style="whiteSpace=wrap;html=1;fontSize=10;strokeWidth=1;" parent="1" vertex="1">
          <mxGeometry x="210" y="195" width="90" height="30" as="geometry" />
        </mxCell>
        <mxCell id="QcxPbey-fvQrx8h6nicg-60" value="" style="edgeStyle=none;rounded=0;orthogonalLoop=1;jettySize=auto;html=1;fontSize=12;endArrow=classic;endFill=1;elbow=vertical;" parent="1" source="QcxPbey-fvQrx8h6nicg-29" target="QcxPbey-fvQrx8h6nicg-59" edge="1">
          <mxGeometry relative="1" as="geometry" />
        </mxCell>
        <mxCell id="QcxPbey-fvQrx8h6nicg-29" value="&lt;font&gt;&lt;span style=&quot;text-align: center ; font-size: 10px&quot;&gt;Узнать&lt;/span&gt;&lt;br style=&quot;text-align: center&quot;&gt;&lt;span style=&quot;text-align: center ; font-size: 10px&quot;&gt;сведения&lt;/span&gt;&lt;/font&gt; &lt;br&gt;&lt;div style=&quot;text-align: center&quot;&gt;&lt;span style=&quot;font-size: 10px&quot;&gt;о выборах&lt;/span&gt;&lt;/div&gt;" style="strokeWidth=1;html=1;shape=mxgraph.flowchart.annotation_1;align=left;pointerEvents=1;rounded=0;fontSize=11;" parent="1" vertex="1">
          <mxGeometry x="340" y="503.62" width="85" height="40" as="geometry" />
        </mxCell>
        <mxCell id="QcxPbey-fvQrx8h6nicg-38" value="Уже регистрировался?" style="rhombus;whiteSpace=wrap;html=1;fontSize=10;strokeWidth=1;" parent="1" vertex="1">
          <mxGeometry x="330" y="170" width="130" height="80" as="geometry" />
        </mxCell>
        <mxCell id="QcxPbey-fvQrx8h6nicg-40" value="Оставить голос" style="whiteSpace=wrap;html=1;fontSize=12;strokeWidth=1;" parent="1" vertex="1">
          <mxGeometry x="640" y="557.5" width="100" height="30" as="geometry" />
        </mxCell>
        <mxCell id="QcxPbey-fvQrx8h6nicg-46" value="нет" style="endArrow=classic;html=1;rounded=0;fontSize=11;edgeStyle=orthogonalEdgeStyle;elbow=vertical;endFill=1;exitX=0.5;exitY=0;exitDx=0;exitDy=0;entryX=0;entryY=0.5;entryDx=0;entryDy=0;" parent="1" source="QcxPbey-fvQrx8h6nicg-38" target="QcxPbey-fvQrx8h6nicg-50" edge="1">
          <mxGeometry width="50" height="50" relative="1" as="geometry">
            <mxPoint x="510" y="200" as="sourcePoint" />
            <mxPoint x="590" y="120" as="targetPoint" />
          </mxGeometry>
        </mxCell>
        <mxCell id="QcxPbey-fvQrx8h6nicg-50" value="&lt;font&gt;Регистрация&lt;br&gt;&lt;/font&gt;&lt;font&gt;пользователя&lt;/font&gt;" style="rounded=0;whiteSpace=wrap;html=1;fontSize=12;strokeWidth=1;" parent="1" vertex="1">
          <mxGeometry x="610" y="130" width="97.5" height="30" as="geometry" />
        </mxCell>
        <mxCell id="QcxPbey-fvQrx8h6nicg-51" value="да" style="endArrow=classic;html=1;rounded=0;fontSize=12;edgeStyle=orthogonalEdgeStyle;elbow=vertical;exitX=0.5;exitY=1;exitDx=0;exitDy=0;entryX=0.5;entryY=0;entryDx=0;entryDy=0;entryPerimeter=0;" parent="1" source="QcxPbey-fvQrx8h6nicg-38" target="QcxPbey-fvQrx8h6nicg-18" edge="1">
          <mxGeometry width="50" height="50" relative="1" as="geometry">
            <mxPoint x="430" y="370" as="sourcePoint" />
            <mxPoint x="580" y="355" as="targetPoint" />
            <Array as="points">
              <mxPoint x="395" y="340" />
              <mxPoint x="395" y="340" />
            </Array>
          </mxGeometry>
        </mxCell>
        <mxCell id="uC8Jnr2yHaZiXLGZVVK4-6" value="" style="edgeStyle=orthogonalEdgeStyle;rounded=0;orthogonalLoop=1;jettySize=auto;html=1;entryX=1;entryY=0.5;entryDx=0;entryDy=0;" parent="1" target="QcxPbey-fvQrx8h6nicg-50" edge="1">
          <mxGeometry relative="1" as="geometry">
            <mxPoint x="1170" y="190" as="sourcePoint" />
            <mxPoint x="825" y="120" as="targetPoint" />
            <Array as="points">
              <mxPoint x="1170" y="145" />
            </Array>
          </mxGeometry>
        </mxCell>
        <mxCell id="QcxPbey-fvQrx8h6nicg-55" value="Проверить поданные голоса" style="rounded=0;whiteSpace=wrap;html=1;fontSize=12;strokeWidth=1;" parent="1" vertex="1">
          <mxGeometry x="1030" y="399.13" width="110" height="40" as="geometry" />
        </mxCell>
        <mxCell id="QcxPbey-fvQrx8h6nicg-56" value="" style="endArrow=classic;html=1;rounded=0;fontSize=12;edgeStyle=orthogonalEdgeStyle;elbow=vertical;endFill=1;entryX=1;entryY=0.5;entryDx=0;entryDy=0;" parent="1" target="QcxPbey-fvQrx8h6nicg-55" edge="1">
          <mxGeometry width="50" height="50" relative="1" as="geometry">
            <mxPoint x="1170" y="290" as="sourcePoint" />
            <mxPoint x="1040" y="160" as="targetPoint" />
            <Array as="points">
              <mxPoint x="1170" y="419" />
            </Array>
          </mxGeometry>
        </mxCell>
        <mxCell id="QcxPbey-fvQrx8h6nicg-59" value="" style="rhombus;whiteSpace=wrap;html=1;rounded=0;fontSize=11;align=left;strokeWidth=1;" parent="1" vertex="1">
          <mxGeometry x="466.25" y="492.5" width="97.5" height="65" as="geometry" />
        </mxCell>
        <mxCell id="QcxPbey-fvQrx8h6nicg-65" style="edgeStyle=orthogonalEdgeStyle;rounded=0;orthogonalLoop=1;jettySize=auto;html=1;exitX=0.5;exitY=1;exitDx=0;exitDy=0;fontSize=12;endArrow=classic;endFill=1;" parent="1" edge="1">
          <mxGeometry relative="1" as="geometry">
            <mxPoint x="680" y="458.1300000000001" as="sourcePoint" />
            <mxPoint x="680" y="458.1300000000001" as="targetPoint" />
          </mxGeometry>
        </mxCell>
        <mxCell id="QcxPbey-fvQrx8h6nicg-69" value="Зарегистрироваться&lt;br&gt;&lt;font&gt;на сайте&lt;/font&gt;" style="rounded=0;whiteSpace=wrap;html=1;fontSize=12;strokeWidth=1;" parent="1" vertex="1">
          <mxGeometry x="630" y="705" width="120" height="30" as="geometry" />
        </mxCell>
        <mxCell id="QcxPbey-fvQrx8h6nicg-70" value="" style="endArrow=none;html=1;rounded=0;fontSize=12;elbow=vertical;entryX=0;entryY=0.5;entryDx=0;entryDy=0;endFill=0;" parent="1" source="Ckuc4saJkIq0bEPmqGia-5" target="QcxPbey-fvQrx8h6nicg-69" edge="1">
          <mxGeometry width="50" height="50" relative="1" as="geometry">
            <mxPoint x="720" y="520" as="sourcePoint" />
            <mxPoint x="770" y="470" as="targetPoint" />
            <Array as="points">
              <mxPoint x="520" y="720" />
              <mxPoint x="570" y="720" />
            </Array>
          </mxGeometry>
        </mxCell>
        <mxCell id="QcxPbey-fvQrx8h6nicg-78" value="" style="endArrow=classic;html=1;rounded=0;fontSize=12;elbow=vertical;" parent="1" edge="1">
          <mxGeometry width="50" height="50" relative="1" as="geometry">
            <mxPoint x="750" y="720" as="sourcePoint" />
            <mxPoint x="840" y="720" as="targetPoint" />
          </mxGeometry>
        </mxCell>
        <mxCell id="C9aT05zjUnMVidygBZYE-1" style="edgeStyle=none;rounded=0;orthogonalLoop=1;jettySize=auto;html=1;endArrow=classic;endFill=1;" parent="1" source="QcxPbey-fvQrx8h6nicg-79" target="C9aT05zjUnMVidygBZYE-2" edge="1">
          <mxGeometry relative="1" as="geometry">
            <mxPoint x="990" y="584.625" as="targetPoint" />
          </mxGeometry>
        </mxCell>
        <mxCell id="QcxPbey-fvQrx8h6nicg-79" value="Внести агитационный&lt;br&gt;&lt;font&gt;материал&lt;/font&gt;" style="rounded=0;whiteSpace=wrap;html=1;fontSize=12;strokeWidth=1;" parent="1" vertex="1">
          <mxGeometry x="1100" y="496.37" width="120" height="47.25" as="geometry" />
        </mxCell>
        <mxCell id="QcxPbey-fvQrx8h6nicg-85" value="&lt;font style=&quot;font-size: 11px&quot;&gt;Соответствие&lt;font style=&quot;font-size: 11px&quot;&gt;&lt;br&gt;условиям &lt;/font&gt; &lt;font style=&quot;font-size: 11px&quot;&gt;участия&lt;/font&gt;&lt;/font&gt;" style="rhombus;whiteSpace=wrap;html=1;rounded=0;fontSize=12;strokeWidth=1;" parent="1" vertex="1">
          <mxGeometry x="840" y="685" width="140" height="70" as="geometry" />
        </mxCell>
        <mxCell id="QcxPbey-fvQrx8h6nicg-88" value="Участие в&lt;br&gt;выборах&amp;nbsp;&lt;font&gt;закончено&lt;/font&gt;" style="rounded=0;whiteSpace=wrap;html=1;fontSize=11;strokeWidth=1;" parent="1" vertex="1">
          <mxGeometry x="850" y="840" width="120" height="40" as="geometry" />
        </mxCell>
        <mxCell id="QcxPbey-fvQrx8h6nicg-89" value="" style="endArrow=classic;html=1;rounded=0;fontSize=11;edgeStyle=orthogonalEdgeStyle;elbow=vertical;entryX=0.5;entryY=1;entryDx=0;entryDy=0;exitX=0.5;exitY=0;exitDx=0;exitDy=0;" parent="1" source="QcxPbey-fvQrx8h6nicg-85" target="QcxPbey-fvQrx8h6nicg-79" edge="1">
          <mxGeometry width="50" height="50" relative="1" as="geometry">
            <mxPoint x="910" y="680" as="sourcePoint" />
            <mxPoint x="1150" y="630" as="targetPoint" />
            <Array as="points">
              <mxPoint x="910" y="660" />
              <mxPoint x="1160" y="660" />
            </Array>
          </mxGeometry>
        </mxCell>
        <mxCell id="QcxPbey-fvQrx8h6nicg-90" value="Соответствует" style="edgeLabel;html=1;align=center;verticalAlign=middle;resizable=0;points=[];fontSize=11;" parent="QcxPbey-fvQrx8h6nicg-89" vertex="1" connectable="0">
          <mxGeometry x="-0.2044" relative="1" as="geometry">
            <mxPoint as="offset" />
          </mxGeometry>
        </mxCell>
        <mxCell id="QcxPbey-fvQrx8h6nicg-91" value="" style="endArrow=classic;html=1;rounded=0;fontSize=11;elbow=vertical;entryX=0.5;entryY=0;entryDx=0;entryDy=0;exitX=0.5;exitY=1;exitDx=0;exitDy=0;" parent="1" source="QcxPbey-fvQrx8h6nicg-85" target="QcxPbey-fvQrx8h6nicg-88" edge="1">
          <mxGeometry width="50" height="50" relative="1" as="geometry">
            <mxPoint x="820" y="630" as="sourcePoint" />
            <mxPoint x="870" y="580" as="targetPoint" />
          </mxGeometry>
        </mxCell>
        <mxCell id="QcxPbey-fvQrx8h6nicg-92" value="Не соответствует" style="edgeLabel;html=1;align=center;verticalAlign=middle;resizable=0;points=[];fontSize=11;" parent="QcxPbey-fvQrx8h6nicg-91" vertex="1" connectable="0">
          <mxGeometry x="-0.3224" y="1" relative="1" as="geometry">
            <mxPoint as="offset" />
          </mxGeometry>
        </mxCell>
        <mxCell id="C9aT05zjUnMVidygBZYE-5" style="edgeStyle=none;rounded=0;orthogonalLoop=1;jettySize=auto;html=1;endArrow=classic;endFill=1;" parent="1" source="C9aT05zjUnMVidygBZYE-2" target="C9aT05zjUnMVidygBZYE-4" edge="1">
          <mxGeometry relative="1" as="geometry" />
        </mxCell>
        <mxCell id="C9aT05zjUnMVidygBZYE-2" value="Агитационный&lt;br&gt;материал" style="strokeWidth=1;html=1;shape=mxgraph.flowchart.annotation_1;align=left;pointerEvents=1;rounded=0;fontSize=11;" parent="1" vertex="1">
          <mxGeometry x="840" y="500" width="85" height="40" as="geometry" />
        </mxCell>
        <mxCell id="C9aT05zjUnMVidygBZYE-4" value="Просмотр агитационного материала" style="rounded=0;whiteSpace=wrap;html=1;fontSize=12;strokeWidth=1;" parent="1" vertex="1">
          <mxGeometry x="620" y="449.12" width="120" height="54.5" as="geometry" />
        </mxCell>
        <mxCell id="C9aT05zjUnMVidygBZYE-7" style="edgeStyle=none;rounded=0;orthogonalLoop=1;jettySize=auto;html=1;endArrow=classic;endFill=1;" parent="1" source="C9aT05zjUnMVidygBZYE-6" target="C9aT05zjUnMVidygBZYE-4" edge="1">
          <mxGeometry relative="1" as="geometry" />
        </mxCell>
        <mxCell id="C9aT05zjUnMVidygBZYE-6" value="Сведения о &lt;br&gt;кандидате" style="strokeWidth=1;html=1;shape=mxgraph.flowchart.annotation_1;align=left;pointerEvents=1;rounded=0;fontSize=11;" parent="1" vertex="1">
          <mxGeometry x="840" y="439.13" width="85" height="40" as="geometry" />
        </mxCell>
        <mxCell id="92jGjU8OM0epYaDa6eFJ-1" value="Внести сведения о выборах" style="rounded=0;whiteSpace=wrap;html=1;" parent="1" vertex="1">
          <mxGeometry x="521" y="350" width="99" height="40" as="geometry" />
        </mxCell>
        <mxCell id="92jGjU8OM0epYaDa6eFJ-3" value="" style="endArrow=classic;html=1;rounded=0;edgeStyle=orthogonalEdgeStyle;entryX=0.5;entryY=0;entryDx=0;entryDy=0;" parent="1" target="92jGjU8OM0epYaDa6eFJ-1" edge="1">
          <mxGeometry width="50" height="50" relative="1" as="geometry">
            <mxPoint x="1140" y="240" as="sourcePoint" />
            <mxPoint x="1250" y="190" as="targetPoint" />
            <Array as="points">
              <mxPoint x="820" y="240" />
              <mxPoint x="820" y="300" />
              <mxPoint x="571" y="300" />
            </Array>
          </mxGeometry>
        </mxCell>
        <mxCell id="uC8Jnr2yHaZiXLGZVVK4-7" value="Сведения&lt;br&gt;о&amp;nbsp;&lt;font&gt;пользователях&lt;/font&gt;" style="html=1;dashed=0;whitespace=wrap;shape=partialRectangle;right=0;" parent="1" vertex="1">
          <mxGeometry x="603.75" y="225" width="110" height="30" as="geometry" />
        </mxCell>
        <mxCell id="uC8Jnr2yHaZiXLGZVVK4-11" value="" style="edgeStyle=orthogonalEdgeStyle;rounded=0;orthogonalLoop=1;jettySize=auto;html=1;" parent="1" source="uC8Jnr2yHaZiXLGZVVK4-9" target="QcxPbey-fvQrx8h6nicg-85" edge="1">
          <mxGeometry relative="1" as="geometry" />
        </mxCell>
        <mxCell id="uC8Jnr2yHaZiXLGZVVK4-9" value="Условия участия" style="html=1;dashed=0;whitespace=wrap;shape=partialRectangle;right=0;" parent="1" vertex="1">
          <mxGeometry x="1010" y="705" width="110" height="30" as="geometry" />
        </mxCell>
        <mxCell id="uC8Jnr2yHaZiXLGZVVK4-12" value="Внести&lt;br&gt;сведения&amp;nbsp;&lt;font&gt;о кандидатах&lt;/font&gt;" style="whiteSpace=wrap;html=1;verticalAlign=top;hachureGap=4;" parent="1" vertex="1">
          <mxGeometry x="920" y="310" width="100" height="50" as="geometry" />
        </mxCell>
        <mxCell id="uC8Jnr2yHaZiXLGZVVK4-14" value="" style="endArrow=classic;html=1;rounded=0;edgeStyle=orthogonalEdgeStyle;exitX=0.5;exitY=1;exitDx=0;exitDy=0;entryX=1;entryY=0.5;entryDx=0;entryDy=0;entryPerimeter=0;jumpStyle=arc;jumpSize=13;" parent="1" source="uC8Jnr2yHaZiXLGZVVK4-12" target="C9aT05zjUnMVidygBZYE-6" edge="1">
          <mxGeometry width="50" height="50" relative="1" as="geometry">
            <mxPoint x="960" y="390" as="sourcePoint" />
            <mxPoint x="990" y="530" as="targetPoint" />
            <Array as="points">
              <mxPoint x="970" y="459" />
            </Array>
          </mxGeometry>
        </mxCell>
        <mxCell id="uC8Jnr2yHaZiXLGZVVK4-15" value="" style="endArrow=classic;html=1;rounded=0;edgeStyle=orthogonalEdgeStyle;jumpStyle=arc;jumpSize=13;exitX=0.5;exitY=1;exitDx=0;exitDy=0;entryX=0;entryY=0.5;entryDx=0;entryDy=0;" parent="1" source="QcxPbey-fvQrx8h6nicg-59" target="QcxPbey-fvQrx8h6nicg-40" edge="1">
          <mxGeometry width="50" height="50" relative="1" as="geometry">
            <mxPoint x="513.69" y="625" as="sourcePoint" />
            <mxPoint x="660" y="590" as="targetPoint" />
            <Array as="points">
              <mxPoint x="515" y="573" />
            </Array>
          </mxGeometry>
        </mxCell>
        <mxCell id="uC8Jnr2yHaZiXLGZVVK4-16" value="" style="endArrow=classic;html=1;rounded=0;edgeStyle=orthogonalEdgeStyle;jumpStyle=arc;jumpSize=13;entryX=0;entryY=0.5;entryDx=0;entryDy=0;exitX=0.5;exitY=0;exitDx=0;exitDy=0;" parent="1" source="QcxPbey-fvQrx8h6nicg-59" target="C9aT05zjUnMVidygBZYE-4" edge="1">
          <mxGeometry width="50" height="50" relative="1" as="geometry">
            <mxPoint x="510" y="481.88" as="sourcePoint" />
            <mxPoint x="590" y="470" as="targetPoint" />
            <Array as="points">
              <mxPoint x="515" y="476" />
            </Array>
          </mxGeometry>
        </mxCell>
        <mxCell id="uC8Jnr2yHaZiXLGZVVK4-20" value="" style="endArrow=classic;html=1;rounded=0;jumpStyle=arc;jumpSize=13;exitX=0.5;exitY=1;exitDx=0;exitDy=0;" parent="1" source="QcxPbey-fvQrx8h6nicg-50" target="uC8Jnr2yHaZiXLGZVVK4-7" edge="1">
          <mxGeometry width="50" height="50" relative="1" as="geometry">
            <mxPoint x="699.94" y="320" as="sourcePoint" />
            <mxPoint x="749.94" y="270" as="targetPoint" />
          </mxGeometry>
        </mxCell>
        <mxCell id="uC8Jnr2yHaZiXLGZVVK4-24" value="Количество&lt;br&gt;&lt;font&gt;голосов&lt;/font&gt;" style="html=1;dashed=0;whitespace=wrap;shape=partialRectangle;right=0;" parent="1" vertex="1">
          <mxGeometry x="640" y="620" width="100" height="30" as="geometry" />
        </mxCell>
        <mxCell id="uC8Jnr2yHaZiXLGZVVK4-25" value="" style="endArrow=classic;html=1;rounded=0;jumpStyle=arc;jumpSize=13;exitX=0.5;exitY=1;exitDx=0;exitDy=0;entryX=0.5;entryY=0;entryDx=0;entryDy=0;" parent="1" source="QcxPbey-fvQrx8h6nicg-40" target="uC8Jnr2yHaZiXLGZVVK4-24" edge="1">
          <mxGeometry width="50" height="50" relative="1" as="geometry">
            <mxPoint x="800" y="580" as="sourcePoint" />
            <mxPoint x="850" y="530" as="targetPoint" />
          </mxGeometry>
        </mxCell>
        <mxCell id="uC8Jnr2yHaZiXLGZVVK4-26" value="" style="endArrow=classic;html=1;rounded=0;jumpStyle=arc;jumpSize=13;edgeStyle=orthogonalEdgeStyle;exitX=1;exitY=0.5;exitDx=0;exitDy=0;entryX=0.43;entryY=1.036;entryDx=0;entryDy=0;entryPerimeter=0;" parent="1" source="uC8Jnr2yHaZiXLGZVVK4-24" target="QcxPbey-fvQrx8h6nicg-55" edge="1">
          <mxGeometry width="50" height="50" relative="1" as="geometry">
            <mxPoint x="760" y="637.5" as="sourcePoint" />
            <mxPoint x="810" y="587.5" as="targetPoint" />
            <Array as="points">
              <mxPoint x="1077" y="635" />
            </Array>
          </mxGeometry>
        </mxCell>
        <mxCell id="uC8Jnr2yHaZiXLGZVVK4-27" value="" style="endArrow=classic;html=1;rounded=0;fontSize=12;edgeStyle=orthogonalEdgeStyle;jumpStyle=arc;jumpSize=13;exitX=0.5;exitY=1;exitDx=0;exitDy=0;" parent="1" source="92jGjU8OM0epYaDa6eFJ-1" edge="1">
          <mxGeometry width="50" height="50" relative="1" as="geometry">
            <mxPoint x="413" y="460" as="sourcePoint" />
            <mxPoint x="340" y="525" as="targetPoint" />
            <Array as="points">
              <mxPoint x="570" y="455" />
              <mxPoint x="260" y="455" />
              <mxPoint x="260" y="525" />
            </Array>
          </mxGeometry>
        </mxCell>
        <mxCell id="uC8Jnr2yHaZiXLGZVVK4-28" value="Внести условия участия в выборах" style="rounded=0;whiteSpace=wrap;html=1;fontSize=12;direction=west;" parent="1" vertex="1">
          <mxGeometry x="1241" y="290" width="110" height="40" as="geometry" />
        </mxCell>
        <mxCell id="uC8Jnr2yHaZiXLGZVVK4-30" value="" style="endArrow=classic;html=1;rounded=0;fontSize=12;edgeStyle=orthogonalEdgeStyle;jumpStyle=arc;jumpSize=13;entryX=0.5;entryY=1;entryDx=0;entryDy=0;" parent="1" target="uC8Jnr2yHaZiXLGZVVK4-28" edge="1">
          <mxGeometry width="50" height="50" relative="1" as="geometry">
            <mxPoint x="1200" y="240" as="sourcePoint" />
            <mxPoint x="1291" y="290" as="targetPoint" />
          </mxGeometry>
        </mxCell>
        <mxCell id="uC8Jnr2yHaZiXLGZVVK4-31" value="" style="endArrow=classic;html=1;rounded=0;fontSize=12;edgeStyle=orthogonalEdgeStyle;jumpStyle=arc;jumpSize=13;entryX=1;entryY=0.5;entryDx=0;entryDy=0;exitX=0.5;exitY=0;exitDx=0;exitDy=0;" parent="1" source="uC8Jnr2yHaZiXLGZVVK4-28" target="uC8Jnr2yHaZiXLGZVVK4-9" edge="1">
          <mxGeometry width="50" height="50" relative="1" as="geometry">
            <mxPoint x="1300" y="340" as="sourcePoint" />
            <mxPoint x="1320" y="590" as="targetPoint" />
            <Array as="points">
              <mxPoint x="1300" y="330" />
              <mxPoint x="1300" y="720" />
            </Array>
          </mxGeometry>
        </mxCell>
      </root>
    </mxGraphModel>
  </diagram>
</mxfile>
